# xmcd
#
# Track frame offsets:
# 150
# 24985
# 35212
# 48445
# 58888
# 91842
# 108015
# 117787
# 136966
# 149111
# 167038
# 197303
# 211865
# 224261
# 235269
# 250029
# 267009
# 282461
#
# Disc length: 4045 seconds
#
#
# Revision: 4
# Processed by: cddbd v1.5.2PL0 Copyright (c) Steve Scherf et al.
# Submitted via: FreeRIP 2.944 
#
DISCID=050fcb12
DTITLE=Various Artist - Jazz and blues legends [CD2/3)
DYEAR=2002
DGENRE=Jazz
TTITLE0=Ike and Tina Turner - All I Can Do Is Cry (re-recording)
TTITLE1=Johnny Winter - Shed So Many Tears (re-recording)
TTITLE2=Mississippi John Hurt - Ain't No Tellin'
TTITLE3=Johnny Winter - Out Of Sight
TTITLE4=John Lee Hooker - Tupelo (live)
TTITLE5=B.B. King - It's My Own Fault Baby
TTITLE6=Lightnin' Hopkins - Heavy Snow
TTITLE7=John Mayall - John Lee Boogie
TTITLE8=Otis Rush - Double Trouble
TTITLE9=Muddy Waters - Everything's Gonna Be Alright (live)
TTITLE10=Brownie McGhee and Sonny Terry - Everybody's Blue
TTITLE11=Bessie Smith - Mean Old Bed Bug Blues
TTITLE12=Eric Clapton - Freight Loader
TTITLE13=Canned Heat - Can't Hold On
TTITLE14=John Lee Hooker - Moanin' Blues
TTITLE15=Nina Simone - Sea Line Woman (live)
TTITLE16=Big Joe Williams - Nobody Knows You When You're Down And Out (re-recording)
TTITLE17=Mike Bloomfield - Women Lovin' Each Other (live)
EXTD=YEAR: 2002 ID3G: 8
EXTT0=
EXTT1=
EXTT2=
EXTT3=
EXTT4=
EXTT5=
EXTT6=
EXTT7=
EXTT8=
EXTT9=
EXTT10=
EXTT11=
EXTT12=
EXTT13=
EXTT14=
EXTT15=
EXTT16=
EXTT17=
PLAYORDER=
